<svg width="20" height="16" viewBox="0 0 20 16" fill="none" xmlns="http://www.w3.org/2000/svg">
<path d="M2 16C1.45 16 0.979333 15.8043 0.588 15.413C0.196 15.021 0 14.55 0 14V2C0 1.45 0.196 0.979333 0.588 0.588C0.979333 0.196 1.45 0 2 0H18C18.55 0 19.021 0.196 19.413 0.588C19.8043 0.979333 20 1.45 20 2V14C20 14.55 19.8043 15.021 19.413 15.413C19.021 15.8043 18.55 16 18 16H2ZM18 4L10.525 8.675C10.4417 8.725 10.354 8.76233 10.262 8.787C10.1707 8.81233 10.0833 8.825 10 8.825C9.91667 8.825 9.82933 8.81233 9.738 8.787C9.646 8.76233 9.55833 8.725 9.475 8.675L2 4V14H18V4ZM10 7L18 2H2L10 7ZM2 4.25V2.775V2.8V2.787V4.25Z" fill="black"/>
</svg>
