<svg width="13" height="22" viewBox="0 0 13 22" fill="none" xmlns="http://www.w3.org/2000/svg">
<path d="M10.5 0H2.5C1.83696 0 1.20107 0.263392 0.732233 0.732233C0.263392 1.20107 0 1.83696 0 2.5V19.5C0 20.163 0.263392 20.7989 0.732233 21.2678C1.20107 21.7366 1.83696 22 2.5 22H10.5C11.163 22 11.7989 21.7366 12.2678 21.2678C12.7366 20.7989 13 20.163 13 19.5V2.5C13 1.83696 12.7366 1.20107 12.2678 0.732233C11.7989 0.263392 11.163 0 10.5 0ZM6.5 21C5.67 21 5 20.33 5 19.5C5 18.67 5.67 18 6.5 18C7.33 18 8 18.67 8 19.5C8 20.33 7.33 21 6.5 21ZM11 17H2V3H11V17Z" fill="black"/>
</svg>
